<svg width="30" height="30" viewBox="0 0 30 30" fill="none" xmlns="http://www.w3.org/2000/svg">
<path d="M28.075 7.5C27.1125 7.9375 26.075 8.225 25 8.3625C26.1 7.7 26.95 6.65 27.35 5.3875C26.3125 6.0125 25.1625 6.45 23.95 6.7C22.9625 5.625 21.575 5 20 5C17.0625 5 14.6625 7.4 14.6625 10.3625C14.6625 10.7875 14.7125 11.2 14.8 11.5875C10.35 11.3625 6.38749 9.225 3.74999 5.9875C3.28749 6.775 3.02499 7.7 3.02499 8.675C3.02499 10.5375 3.96249 12.1875 5.41249 13.125C4.52499 13.125 3.69999 12.875 2.97499 12.5C2.97499 12.5 2.97499 12.5 2.97499 12.5375C2.97499 15.1375 4.82499 17.3125 7.27499 17.8C6.82499 17.925 6.34999 17.9875 5.86249 17.9875C5.52499 17.9875 5.18749 17.95 4.86249 17.8875C5.53749 20 7.49999 21.575 9.86249 21.6125C8.03749 23.0625 5.72499 23.9125 3.19999 23.9125C2.77499 23.9125 2.34999 23.8875 1.92499 23.8375C4.29999 25.3625 7.12499 26.25 10.15 26.25C20 26.25 25.4125 18.075 25.4125 10.9875C25.4125 10.75 25.4125 10.525 25.4 10.2875C26.45 9.5375 27.35 8.5875 28.075 7.5Z" fill="#F1F1F1"/>
</svg>
